<svg xmlns="http://www.w3.org/2000/svg" viewBox="0 0 128 128" role="img" aria-label="AI Chat Branch icon candidate">
  <defs>
    <linearGradient id="bg" x1="0" y1="0" x2="1" y2="1">
      <stop offset="0" stop-color="#0b2a3a"/>
      <stop offset="1" stop-color="#114b5f"/>
    </linearGradient>
    <linearGradient id="accent" x1="0" y1="0" x2="1" y2="1">
      <stop offset="0" stop-color="#34d399"/>
      <stop offset="1" stop-color="#22d3ee"/>
    </linearGradient>
  </defs>

  <rect x="4" y="4" width="120" height="120" rx="24" fill="url(#bg)"/>

  <!-- Chat bubble -->
  <path d="M29 30h70a12 12 0 0 1 12 12v36a12 12 0 0 1-12 12H61l-16 14v-14H29a12 12 0 0 1-12-12V42a12 12 0 0 1 12-12z"
        fill="none" stroke="#f8fafc" stroke-width="6" stroke-linejoin="round"/>

  <!-- Branch graph in bubble -->
  <circle cx="44" cy="60" r="6" fill="url(#accent)"/>
  <circle cx="68" cy="48" r="5" fill="#f8fafc"/>
  <circle cx="88" cy="62" r="5" fill="#f8fafc"/>
  <circle cx="68" cy="74" r="5" fill="#f8fafc"/>

  <path d="M49 58L63 51" stroke="url(#accent)" stroke-width="5" stroke-linecap="round"/>
  <path d="M49 60L83 62" stroke="url(#accent)" stroke-width="5" stroke-linecap="round"/>
  <path d="M49 62L63 71" stroke="url(#accent)" stroke-width="5" stroke-linecap="round"/>
</svg>
