<svg xmlns="http://www.w3.org/2000/svg" viewBox="0 0 48 48" role="img" aria-label="AI Chat Branch icon candidate 48">
  <defs>
    <linearGradient id="bg" x1="0" y1="0" x2="1" y2="1">
      <stop offset="0" stop-color="#0b2a3a"/>
      <stop offset="1" stop-color="#114b5f"/>
    </linearGradient>
    <linearGradient id="accent" x1="0" y1="0" x2="1" y2="1">
      <stop offset="0" stop-color="#34d399"/>
      <stop offset="1" stop-color="#22d3ee"/>
    </linearGradient>
  </defs>

  <rect x="1.5" y="1.5" width="45" height="45" rx="9" fill="url(#bg)"/>
  <path d="M12 12h24a5 5 0 0 1 5 5v12a5 5 0 0 1-5 5H25l-5 4v-4H12a5 5 0 0 1-5-5V17a5 5 0 0 1 5-5z"
        fill="none" stroke="#f8fafc" stroke-width="2.4" stroke-linejoin="round"/>

  <circle cx="17" cy="23" r="2.1" fill="url(#accent)"/>
  <circle cx="25" cy="19" r="1.7" fill="#f8fafc"/>
  <circle cx="32" cy="23" r="1.7" fill="#f8fafc"/>
  <circle cx="25" cy="27" r="1.7" fill="#f8fafc"/>

  <path d="M18.8 22.2L23.2 20" stroke="url(#accent)" stroke-width="2" stroke-linecap="round"/>
  <path d="M19 23L30.2 23" stroke="url(#accent)" stroke-width="2" stroke-linecap="round"/>
  <path d="M18.8 23.8L23.2 26" stroke="url(#accent)" stroke-width="2" stroke-linecap="round"/>
</svg>
