<svg xmlns="http://www.w3.org/2000/svg" viewBox="0 0 16 16" role="img" aria-label="AI Chat Branch icon candidate 16">
  <defs>
    <linearGradient id="bg" x1="0" y1="0" x2="1" y2="1">
      <stop offset="0" stop-color="#0b2a3a"/>
      <stop offset="1" stop-color="#114b5f"/>
    </linearGradient>
  </defs>

  <rect x="0.5" y="0.5" width="15" height="15" rx="3" fill="url(#bg)"/>
  <path d="M4.2 4.2h7.6a1.6 1.6 0 0 1 1.6 1.6v3.5a1.6 1.6 0 0 1-1.6 1.6H8.6l-1.4 1.2v-1.2H4.2a1.6 1.6 0 0 1-1.6-1.6V5.8a1.6 1.6 0 0 1 1.6-1.6z"
        fill="none" stroke="#f8fafc" stroke-width="1" stroke-linejoin="round"/>

  <circle cx="5.9" cy="7.6" r="0.8" fill="#34d399"/>
  <circle cx="8.3" cy="6.4" r="0.6" fill="#f8fafc"/>
  <circle cx="10.4" cy="7.6" r="0.6" fill="#f8fafc"/>
  <circle cx="8.3" cy="8.8" r="0.6" fill="#f8fafc"/>

  <path d="M6.5 7.2L7.7 6.7" stroke="#22d3ee" stroke-width="0.9" stroke-linecap="round"/>
  <path d="M6.6 7.6H9.8" stroke="#22d3ee" stroke-width="0.9" stroke-linecap="round"/>
  <path d="M6.5 8L7.7 8.5" stroke="#22d3ee" stroke-width="0.9" stroke-linecap="round"/>
</svg>
